<svg width="49" height="48" viewBox="0 0 49 48" fill="none" xmlns="http://www.w3.org/2000/svg">
<g clip-path="url(#clip0_3475_620)">
<path d="M25.1079 47.9716C28.7785 47.4501 31.9962 43.6191 34.0211 37.9614C31.094 37.3058 28.107 36.954 25.1079 36.9121V47.9716Z" fill="#6475DC"/>
<path d="M30.972 47.0718C31.189 47.009 31.4051 46.9458 31.6196 46.8762C31.8006 46.818 31.979 46.7552 32.1574 46.6928C32.3686 46.6199 32.5788 46.5449 32.7883 46.4653C32.9667 46.3975 33.1435 46.3254 33.3206 46.2534C33.5251 46.1675 33.729 46.082 33.9309 45.9962C34.1073 45.9187 34.2824 45.8374 34.4575 45.7557C34.6556 45.6623 34.8529 45.5673 35.0485 45.4684C35.2202 45.3809 35.3915 45.2916 35.5633 45.1999C35.7555 45.0969 35.9465 44.9917 36.1363 44.8837C36.308 44.7865 36.4735 44.6889 36.6406 44.5884C36.8266 44.474 37.0117 44.3596 37.1956 44.2453C37.3602 44.1406 37.5244 44.0342 37.6865 43.9244C37.8675 43.8025 38.0459 43.6756 38.2235 43.5487C38.3831 43.4344 38.5419 43.3204 38.6977 43.2057C38.8694 43.0733 39.0454 42.9363 39.2175 42.7989C39.3704 42.677 39.5229 42.556 39.6732 42.4307C39.8446 42.2883 40.0088 42.1409 40.175 41.9934C40.3208 41.864 40.4674 41.7358 40.6098 41.6031C40.7736 41.4502 40.9332 41.2918 41.0928 41.1348C41.231 40.9982 41.3709 40.8638 41.5062 40.7238C41.5314 40.6979 41.5552 40.6698 41.5812 40.643C39.7101 39.6767 37.7393 38.9181 35.7032 38.3811C34.6443 41.758 32.7598 44.8183 30.2206 47.2838C30.2901 47.2658 30.3596 47.2511 30.4292 47.2331C30.6126 47.1816 30.7928 47.125 30.972 47.0718Z" fill="#6475DC"/>
<path d="M48.2501 24.8776H37.9643C37.9254 28.8937 37.3427 32.886 36.2323 36.7459C38.4967 37.3507 40.682 38.2203 42.7428 39.3366C46.1264 35.2584 48.0633 30.1738 48.2501 24.8776Z" fill="#6475DC"/>
<path d="M25.1079 23.1619H36.2486C36.2051 19.2877 35.6366 15.4375 34.5597 11.7158C31.4576 12.4233 28.2892 12.8011 25.1079 12.843V23.1619Z" fill="#6475DC"/>
<path d="M25.1079 0.0678711V11.1273C28.107 11.085 31.094 10.7336 34.0211 10.078C31.9962 4.42036 28.7785 0.589365 25.1079 0.0678711Z" fill="#6475DC"/>
<path d="M25.1079 35.1964C28.2892 35.2388 31.4576 35.6166 34.5597 36.324C35.6366 32.6024 36.2051 28.7517 36.2486 24.8776H25.1079V35.1964Z" fill="#6475DC"/>
<path d="M42.7428 8.70288C40.682 9.81917 38.4967 10.6887 36.2323 11.2936C37.3427 15.1535 37.9254 19.1458 37.9643 23.1619H48.2501C48.0629 17.8661 46.126 12.7814 42.7428 8.70288Z" fill="#6475DC"/>
<path d="M41.5837 7.40138C41.5586 7.37583 41.5347 7.34818 41.51 7.32179C41.3743 7.18189 41.2336 7.04701 41.0953 6.91088C40.9362 6.75381 40.7774 6.59505 40.6132 6.44258C40.4712 6.31022 40.3242 6.18498 40.1784 6.05303C40.0121 5.90559 39.8459 5.75689 39.675 5.61448C39.5267 5.48923 39.3746 5.36944 39.2238 5.24922C39.0521 5.11016 38.8762 4.97193 38.6994 4.83915C38.5444 4.72228 38.3873 4.60919 38.2294 4.49609C38.0502 4.36708 37.87 4.23849 37.6874 4.11576C37.527 4.00769 37.364 3.90213 37.2011 3.79867C37.0155 3.67929 36.8304 3.56243 36.6415 3.44933C36.476 3.35006 36.3089 3.25204 36.1414 3.15696C35.9495 3.04722 35.7573 2.94082 35.5633 2.83694C35.3916 2.75108 35.2203 2.65767 35.0485 2.5718C34.8512 2.47211 34.6523 2.37619 34.4483 2.28194C34.2765 2.20026 34.1023 2.12067 33.9255 2.04318C33.7224 1.95313 33.5171 1.87187 33.3123 1.786C33.1355 1.71395 32.9596 1.64274 32.7812 1.57489C32.573 1.4953 32.3619 1.42074 32.1508 1.34786C31.9723 1.28503 31.7939 1.22262 31.6129 1.16397C31.3985 1.09444 31.184 1.03119 30.9637 0.967523C30.7853 0.915164 30.606 0.861968 30.4254 0.814216C30.3563 0.795367 30.286 0.780707 30.2164 0.762695C32.7556 3.22817 34.6397 6.28802 35.699 9.66538C37.7373 9.12838 39.711 8.36939 41.5837 7.40138Z" fill="#6475DC"/>
<path d="M0.25 23.1619H10.5358C10.5747 19.1458 11.1574 15.1535 12.2674 11.2936C10.0034 10.6892 7.81816 9.81959 5.75731 8.70288C2.37368 12.781 0.436816 17.8661 0.25 23.1619Z" fill="#6475DC"/>
<path d="M23.3922 47.9716V36.9121C20.393 36.9544 17.4061 37.3058 14.479 37.9614C16.5034 43.6191 19.7216 47.4501 23.3922 47.9716Z" fill="#6475DC"/>
<path d="M23.3922 24.8776H12.2515C12.295 28.7517 12.863 32.6024 13.9404 36.324C17.0425 35.6162 20.2104 35.2383 23.3922 35.1964V24.8776Z" fill="#6475DC"/>
<path d="M23.3922 0.0678711C19.7216 0.589365 16.5034 4.42036 14.479 10.078C17.4061 10.734 20.393 11.0854 23.3922 11.1273V0.0678711Z" fill="#6475DC"/>
<path d="M23.3922 12.843C20.2108 12.8011 17.0425 12.4233 13.9404 11.7158C12.863 15.4375 12.295 19.2877 12.2515 23.1619H23.3922V12.843Z" fill="#6475DC"/>
<path d="M18.2769 0.761841C18.2074 0.779852 18.1379 0.794513 18.0683 0.812524C17.8865 0.861113 17.7073 0.915148 17.5263 0.967506C17.311 1.03034 17.0974 1.09359 16.8812 1.16228C16.699 1.22134 16.5198 1.28417 16.3405 1.34658C16.1306 1.42072 15.9204 1.49445 15.7126 1.57319C15.5333 1.64189 15.3566 1.7131 15.179 1.78598C14.975 1.87185 14.7706 1.95772 14.5691 2.04317C14.3923 2.12066 14.2176 2.20192 14.0426 2.2836C13.8444 2.37701 13.6471 2.47209 13.4515 2.57094C13.2798 2.65849 13.1081 2.74813 12.9367 2.83944C12.7445 2.94248 12.5539 3.04804 12.3646 3.15611C12.1928 3.25203 12.024 3.35046 11.8586 3.45099C11.6722 3.56325 11.4879 3.67928 11.3044 3.79405C11.1394 3.8996 10.9756 4.006 10.8135 4.11574C10.6325 4.23763 10.4541 4.36455 10.2765 4.49147C10.1169 4.60582 9.95815 4.71975 9.80191 4.83494C9.6264 4.96689 9.45886 5.10427 9.28209 5.24125C9.12962 5.36314 8.9759 5.48419 8.82678 5.61027C8.65504 5.75185 8.4921 5.89845 8.32665 6.04506C8.18004 6.17575 8.03218 6.30266 7.88893 6.43796C7.72599 6.59001 7.56724 6.74792 7.40806 6.90458C7.26984 7.04113 7.1291 7.17601 6.99338 7.31633C6.96867 7.3423 6.94479 7.37079 6.91882 7.39717C8.7895 8.36393 10.7607 9.1225 12.7968 9.6595C13.8557 6.28423 15.739 3.22606 18.2769 0.761841Z" fill="#6475DC"/>
<path d="M7.40426 41.1284C7.56385 41.2855 7.7226 41.4443 7.88638 41.5971C8.02879 41.7291 8.1754 41.8543 8.32158 41.9863C8.48787 42.1341 8.65417 42.2824 8.82507 42.4248C8.97335 42.5492 9.12456 42.6695 9.27619 42.7901C9.44793 42.9292 9.61925 43.0674 9.80104 43.201C9.9556 43.317 10.1127 43.4293 10.2698 43.5445C10.449 43.6731 10.63 43.8017 10.8126 43.9252C10.973 44.0333 11.136 44.1389 11.2989 44.2427C11.4845 44.3617 11.6696 44.4786 11.8585 44.5917C12.024 44.6913 12.1911 44.7889 12.3587 44.8844C12.5505 44.9942 12.7428 45.1006 12.9367 45.204C13.108 45.2899 13.2798 45.3833 13.4515 45.4692C13.6488 45.5689 13.8477 45.6648 14.0517 45.7595C14.2235 45.8403 14.3977 45.9199 14.5745 45.9978C14.7776 46.0879 14.9825 46.1691 15.1877 46.255C15.3645 46.327 15.5404 46.3982 15.7188 46.4661C15.927 46.5461 16.1381 46.6207 16.3492 46.6935C16.5277 46.756 16.7061 46.8188 16.8871 46.877C17.1015 46.9465 17.316 47.0102 17.5363 47.0735C17.7148 47.1258 17.894 47.179 18.0742 47.2272C18.1437 47.246 18.2141 47.2607 18.2836 47.2787C15.7444 44.8128 13.8603 41.753 12.801 38.3756C10.7649 38.913 8.79365 39.6716 6.92297 40.6388C6.94811 40.6643 6.97198 40.692 6.99711 40.7184C7.12571 40.8574 7.26435 40.9923 7.40426 41.1284Z" fill="#6475DC"/>
<path d="M5.75731 39.3366C7.81816 38.2203 10.0034 37.3507 12.2674 36.7459C11.1574 32.886 10.5747 28.8937 10.5358 24.8776H0.25C0.437235 30.1733 2.37368 35.258 5.75731 39.3366Z" fill="#6475DC"/>
</g>
<defs>
<clipPath id="clip0_3475_620">
<rect width="48" height="48" fill="white" transform="translate(0.25)"/>
</clipPath>
</defs>
</svg>
