<?xml version="1.0" encoding="utf-8"?>
<!-- Generator: Adobe Illustrator 24.3.0, SVG Export Plug-In . SVG Version: 6.00 Build 0)  -->
<svg version="1.1" id="Layer_1" xmlns="http://www.w3.org/2000/svg" xmlns:xlink="http://www.w3.org/1999/xlink" x="0px" y="0px"
	 viewBox="0 0 1582.14 1300.2" style="enable-background:new 0 0 1582.14 1300.2;" xml:space="preserve">
<style type="text/css">
	.st0{fill:#FFFFFF;}
	.st1{fill:#6475DC;}
</style>
<g>
	<path d="M1058.07,364.62c-69.68-65.07-163.22-104.91-266.09-104.91C576.6,259.71,402,434.31,402,649.69s174.6,389.98,389.98,389.98
		s389.98-174.6,389.98-389.98c0-102.35-39.45-195.48-103.95-265.05L1058.07,364.62z"/>
	<g>
		<path class="st0" d="M791.98,1019.47c-203.9,0-369.78-165.88-369.78-369.78s165.88-369.78,369.78-369.78
			c94,0,183.6,35.33,252.3,99.48l0.14,0.13l18.64,18.71c63.69,68.7,98.7,157.95,98.7,251.46
			C1161.76,853.59,995.88,1019.47,791.98,1019.47z M791.98,290.52c-198.05,0-359.17,161.13-359.17,359.17
			s161.13,359.17,359.17,359.17s359.17-161.13,359.17-359.17c0-90.82-34-177.52-95.74-244.11l-18.44-18.51
			C970.26,324.81,883.26,290.52,791.98,290.52z"/>
	</g>
	<path class="st0" d="M667.52,633.57c-4.46,0-8.06,3.6-8.06,8.05c0-4.45-3.6-8.05-8.06-8.05c4.46,0,8.06-3.61,8.06-8.06
		C659.45,629.96,663.06,633.57,667.52,633.57z"/>
	<path class="st0" d="M724.76,495.7c-8.06,0-14.57,6.52-14.57,14.56c0-8.04-6.52-14.56-14.57-14.56c8.06,0,14.57-6.53,14.57-14.57
		C710.19,489.17,716.71,495.7,724.76,495.7z"/>
	<path class="st0" d="M883.45,489.13c-9.32,0-16.87,7.54-16.87,16.85c0-9.31-7.54-16.85-16.87-16.85c9.32,0,16.87-7.56,16.87-16.87
		C866.59,481.57,874.13,489.13,883.45,489.13z"/>
	<path class="st0" d="M970.58,708.61c-5.32,0-9.63,4.31-9.63,9.62c0-5.31-4.31-9.62-9.63-9.62c5.32,0,9.63-4.32,9.63-9.63
		C960.95,704.29,965.26,708.61,970.58,708.61z"/>
	<circle class="st0" cx="773.47" cy="475.78" r="2.47"/>
	<circle class="st0" cx="640.98" cy="520.45" r="2.47"/>
	<circle class="st0" cx="939.73" cy="516.82" r="2.47"/>
	<path class="st0" d="M533.78,788.68c-8.45,2.01-13.66,10.47-11.66,18.9c-2-8.44-10.46-13.65-18.92-11.64
		c8.45-2.01,13.66-10.49,11.65-18.92C516.87,785.46,525.33,790.68,533.78,788.68z"/>
	<circle class="st0" cx="620.8" cy="741.26" r="3.45"/>
	<path class="st0" d="M1063.81,754.49c8.3,1.97,13.41,10.28,11.44,18.56c1.97-8.28,10.27-13.4,18.57-11.42
		c-8.3-1.97-13.41-10.29-11.44-18.57C1080.42,751.33,1072.11,756.47,1063.81,754.49z"/>
	<path class="st0" d="M1093.83,650.51c6.09,1.45,9.84,7.54,8.4,13.61c1.44-6.07,7.54-9.83,13.62-8.38
		c-6.09-1.45-9.84-7.55-8.39-13.63C1106.01,648.2,1099.91,651.96,1093.83,650.51z"/>
	<circle class="st0" cx="1071.9" cy="695.13" r="2.47"/>
	<g>
		<g>
			<g>
				<path class="st0" d="M564.52,474.58l2.21,1.87c1.35,1.14,2.55,1.87,3.61,2.19c1.06,0.32,2.13,0.23,3.2-0.27
					c1.07-0.5,2.24-1.39,3.5-2.66c1.26-1.28,2.78-2.97,4.56-5.07c1.74-2.06,3.04-3.8,3.88-5.22c0.84-1.42,1.26-2.68,1.27-3.8
					c0.01-1.11-0.35-2.15-1.05-3.11c-0.71-0.96-1.75-2.02-3.14-3.2c-1.68-1.42-3.12-2.26-4.31-2.51c-1.19-0.25-2.34-0.07-3.44,0.55
					c-1.1,0.62-2.23,1.57-3.4,2.86c-1.16,1.29-2.53,2.78-4.11,4.48c-2.34,2.42-4.55,4.67-6.62,6.74c-2.08,2.07-4.23,3.57-6.46,4.49
					c-2.23,0.93-4.66,1.09-7.29,0.49c-2.63-0.6-5.67-2.36-9.12-5.28c-3.24-2.74-5.35-5.36-6.34-7.86c-0.99-2.5-1.18-4.98-0.56-7.46
					c0.61-2.47,1.84-4.97,3.69-7.49c1.84-2.52,3.97-5.21,6.39-8.07c2.03-2.4,4.04-4.6,6.02-6.6c1.98-2,4.05-3.44,6.21-4.33
					c2.15-0.88,4.47-1.07,6.96-0.55c2.49,0.52,5.28,2.09,8.4,4.73l1.51,1.28l-7.69,9.08l-1.51-1.28c-1.26-1.07-2.36-1.77-3.31-2.1
					c-0.95-0.33-1.88-0.31-2.81,0.06c-0.93,0.37-1.88,1.06-2.85,2.08c-0.97,1.02-2.13,2.33-3.48,3.92c-1.92,2.27-3.39,4.15-4.4,5.64
					c-1.01,1.49-1.62,2.78-1.82,3.87c-0.2,1.09-0.02,2.09,0.54,3c0.56,0.91,1.48,1.9,2.74,2.97c1.47,1.25,2.7,2.1,3.67,2.57
					c0.98,0.47,1.99,0.51,3.03,0.13c1.04-0.38,2.23-1.18,3.55-2.41c1.32-1.22,3.03-2.94,5.11-5.14c3.31-3.48,6.13-6.26,8.48-8.36
					c2.35-2.09,4.57-3.46,6.67-4.1c2.1-0.64,4.24-0.53,6.42,0.35c2.18,0.87,4.79,2.59,7.82,5.15c3.32,2.81,5.61,5.42,6.86,7.81
					c1.25,2.4,1.72,4.79,1.39,7.18c-0.33,2.39-1.35,4.85-3.05,7.38c-1.71,2.53-3.84,5.3-6.4,8.33c-2.21,2.61-4.38,5.06-6.51,7.37
					c-2.13,2.31-4.38,4.03-6.75,5.16c-2.37,1.13-4.9,1.48-7.59,1.04c-2.69-0.44-5.74-2.1-9.15-4.98l-2.21-1.87L564.52,474.58z"/>
				<path class="st0" d="M572.87,403.17l21.75-16.72c3.28-2.52,6.22-4.4,8.84-5.65c2.62-1.25,5.08-1.77,7.39-1.57
					c2.31,0.2,4.6,1.17,6.87,2.9c2.27,1.73,4.73,4.32,7.38,7.77c2.69,3.49,4.54,6.54,5.55,9.12c1.02,2.59,1.28,5.01,0.79,7.26
					c-0.49,2.25-1.7,4.43-3.63,6.54c-1.93,2.11-4.48,4.38-7.67,6.83l-12.32,9.47l12.23,15.92l-9.43,7.25L572.87,403.17z
					 M613.96,411.61c1.67-1.35,2.95-2.54,3.83-3.56c0.88-1.02,1.39-2.06,1.53-3.1c0.14-1.04-0.11-2.17-0.73-3.4
					c-0.63-1.22-1.59-2.68-2.9-4.39c-1.34-1.75-2.54-3.12-3.59-4.12c-1.05-1-2.12-1.62-3.2-1.86c-1.09-0.24-2.27-0.08-3.54,0.48
					c-1.27,0.56-2.78,1.51-4.53,2.86l-12.32,9.46l13.14,17.1L613.96,411.61z"/>
				<path class="st0" d="M659.11,404.24l1.59,12.26l-11.09,5.34l-8.37-64.76l15.78-7.6l45.81,46.72l-10.87,5.24l-8.74-8.81
					L659.11,404.24z M653.38,361.33l-0.15,0.07l4.42,33.55l19.28-9.29L653.38,361.33z"/>
				<path class="st0" d="M735.62,346.31l-0.76-3.3c-0.41-1.77-0.93-3.11-1.56-4.01c-0.63-0.9-1.49-1.48-2.56-1.74
					c-1.08-0.26-2.46-0.26-4.16-0.02c-1.7,0.25-3.8,0.67-6.33,1.25c-2.9,0.67-5.21,1.37-6.93,2.11c-1.73,0.74-2.97,1.72-3.73,2.94
					c-0.77,1.22-1.1,2.77-1.01,4.64c0.09,1.87,0.48,4.29,1.16,7.24l3.08,13.37c0.69,3.01,1.4,5.41,2.13,7.22
					c0.73,1.81,1.68,3.13,2.86,3.96c1.18,0.83,2.71,1.23,4.6,1.19c1.88-0.04,4.36-0.41,7.42-1.12c2.31-0.53,4.3-1.06,5.99-1.59
					c1.69-0.53,3.02-1.2,3.99-2.02c0.97-0.82,1.58-1.89,1.84-3.22c0.26-1.33,0.14-3.07-0.36-5.22l-0.76-3.3l11.59-2.67l0.91,3.94
					c1.1,4.55,1.33,8.16,0.67,10.83c-0.66,2.67-1.96,4.81-3.91,6.41c-1.95,1.61-4.45,2.88-7.52,3.81
					c-3.06,0.93-6.46,1.91-10.18,2.94c-5.26,1.44-9.63,2.14-13.09,2.08c-3.46-0.05-6.33-0.83-8.6-2.34
					c-2.27-1.51-4.09-3.75-5.45-6.72c-1.36-2.96-2.58-6.64-3.65-11.03l-3.19-13.85c-1.11-4.83-1.54-8.89-1.28-12.17
					c0.26-3.28,1.21-6.04,2.84-8.29c1.63-2.24,3.97-4.05,7.02-5.43c3.04-1.38,6.79-2.58,11.25-3.61c3.76-0.87,7.13-1.54,10.13-2.04
					c2.99-0.49,5.65-0.43,7.97,0.2c2.32,0.62,4.33,1.97,6.02,4.04c1.69,2.07,3.15,5.25,4.36,9.55l0.76,3.3L735.62,346.31z"/>
				<path class="st0" d="M776.89,346.57l29-0.57l0.19,9.75l-29,0.57l0.32,16.44l30.81-0.6l0.2,10.16l-42.71,0.84l-1.21-61.96
					l42.46-0.83l0.2,10.16l-30.57,0.6L776.89,346.57z"/>
				<path class="st0" d="M874.13,395.5l-11.4-3.4l14.8-49.65l-17.42-5.19l2.9-9.74l46.24,13.79l-2.9,9.74l-17.42-5.19L874.13,395.5z
					"/>
				<path class="st0" d="M924.57,376.63l25.69,13.46l-4.52,8.64l-25.69-13.46l-7.63,14.57l27.3,14.3l-4.72,9l-37.84-19.82
					l28.76-54.9l37.62,19.71l-4.72,9l-27.08-14.19L924.57,376.63z"/>
				<path class="st0" d="M998.45,420.43l2.16-2.61c1.16-1.4,1.9-2.63,2.23-3.68c0.33-1.05,0.27-2.08-0.18-3.09
					c-0.45-1.01-1.29-2.12-2.52-3.31c-1.23-1.19-2.84-2.61-4.84-4.26c-2.29-1.89-4.26-3.3-5.89-4.22c-1.63-0.92-3.17-1.31-4.6-1.17
					c-1.44,0.14-2.87,0.81-4.3,2.03c-1.43,1.21-3.11,2.99-5.04,5.32l-8.73,10.58c-1.96,2.38-3.44,4.41-4.44,6.09
					c-0.99,1.68-1.46,3.24-1.4,4.68c0.06,1.44,0.68,2.9,1.86,4.37c1.18,1.47,2.98,3.21,5.4,5.21c1.83,1.51,3.46,2.77,4.91,3.79
					c1.45,1.02,2.79,1.66,4.03,1.93c1.24,0.27,2.47,0.11,3.68-0.5c1.21-0.61,2.52-1.76,3.92-3.46l2.16-2.61l9.18,7.57l-2.58,3.12
					c-2.94,3.65-5.67,6.02-8.18,7.12c-2.52,1.1-5.01,1.37-7.47,0.8c-2.46-0.57-4.99-1.78-7.6-3.65c-2.6-1.86-5.45-3.96-8.53-6.29
					c-4.35-3.3-7.55-6.34-9.62-9.12c-2.07-2.78-3.19-5.53-3.37-8.25c-0.18-2.72,0.49-5.52,2.01-8.41c1.52-2.89,3.7-6.09,6.53-9.61
					l9.05-10.96c3.16-3.82,6.12-6.63,8.88-8.42c2.76-1.79,5.53-2.72,8.3-2.79c2.77-0.07,5.63,0.68,8.58,2.26
					c2.95,1.58,6.19,3.82,9.71,6.73c2.97,2.45,5.57,4.72,7.78,6.8c2.21,2.08,3.78,4.23,4.7,6.45c0.92,2.22,1.07,4.63,0.46,7.23
					c-0.61,2.6-2.25,5.69-4.92,9.28l-2.16,2.61L998.45,420.43z"/>
				<path class="st0" d="M1020.28,508.7l-7.22-9.46l21.01-16.05l-17.5-22.92l-21.01,16.05l-7.22-9.46l49.25-37.61l7.22,9.46
					l-20.16,15.4l17.5,22.92l20.16-15.4l7.22,9.46L1020.28,508.7z"/>
			</g>
		</g>
		<g>
			<g>
				<path class="st0" d="M568.18,851.59l20.07,20.94l-7.04,6.75l-20.07-20.94l-11.87,11.38l21.33,22.25l-7.34,7.03l-29.56-30.84
					l44.74-42.88l29.39,30.66l-7.34,7.03l-21.15-22.07L568.18,851.59z"/>
				<path class="st0" d="M627.04,907.24l-1.77,37.59l-11.3-7.77l1.97-30.43l-27.77,12.69l-11.58-7.96l34.93-14.79l1.4-35.44
					l11.44,7.86l-2.1,28.44l25.73-12.2l11.24,7.72L627.04,907.24z"/>
				<path class="st0" d="M666.15,896.17l25.41,10.34c3.83,1.56,6.94,3.15,9.34,4.78c2.4,1.63,4.09,3.49,5.08,5.59
					c0.99,2.1,1.31,4.56,0.96,7.39c-0.35,2.83-1.34,6.26-2.99,10.29c-1.66,4.08-3.35,7.21-5.07,9.4c-1.72,2.18-3.68,3.63-5.87,4.35
					c-2.19,0.71-4.68,0.77-7.47,0.17c-2.79-0.6-6.05-1.66-9.77-3.17l-14.39-5.86l-7.57,18.6l-11.02-4.49L666.15,896.17z
					 M679.6,935.9c2.01,0.76,3.68,1.26,5.01,1.5c1.33,0.24,2.48,0.16,3.45-0.25c0.97-0.41,1.82-1.19,2.56-2.35
					c0.74-1.16,1.51-2.73,2.32-4.72c0.83-2.04,1.41-3.77,1.75-5.18c0.34-1.41,0.33-2.64-0.01-3.71c-0.34-1.06-1.07-2-2.2-2.81
					c-1.13-0.82-2.71-1.64-4.75-2.47l-14.39-5.86l-8.13,19.97L679.6,935.9z"/>
				<path class="st0" d="M724.39,970.22l28.41,5.42l-1.91,9.98l-40.09-7.65l11.62-60.87l11.69,2.23L724.39,970.22z"/>
				<path class="st0" d="M806.63,925.4c3.31,0.44,6.08,1.43,8.31,2.96c2.23,1.53,3.9,3.79,5.03,6.78c1.12,2.98,1.72,6.96,1.8,11.91
					l0.27,16.69c0.08,4.96-0.35,8.99-1.29,12.09c-0.94,3.1-2.47,5.52-4.59,7.26c-2.12,1.74-4.84,2.94-8.16,3.6
					c-3.32,0.66-7.33,1.03-12.01,1.1c-4.79,0.08-8.86-0.13-12.2-0.63c-3.34-0.5-6.06-1.57-8.15-3.22c-2.09-1.65-3.63-4.02-4.62-7.11
					c-0.99-3.1-1.52-7.18-1.6-12.25l-0.27-16.69c-0.08-4.79,0.3-8.68,1.13-11.67c0.83-2.99,2.26-5.31,4.27-6.97
					c2.01-1.66,4.69-2.79,8.04-3.39c3.35-0.61,7.48-0.95,12.38-1.03C799.43,924.77,803.31,924.95,806.63,925.4z M787.54,935.71
					c-1.87,0.42-3.28,1.1-4.22,2.05c-0.95,0.95-1.56,2.23-1.84,3.83c-0.28,1.6-0.42,3.64-0.44,6.12l0.27,16.69
					c0.05,3.08,0.28,5.52,0.7,7.3c0.41,1.78,1.14,3.12,2.17,4.01c1.03,0.89,2.49,1.45,4.37,1.66c1.88,0.22,4.3,0.3,7.28,0.25
					c2.7-0.04,4.97-0.22,6.81-0.52c1.84-0.31,3.33-0.93,4.47-1.89c1.14-0.95,1.95-2.33,2.41-4.13c0.47-1.8,0.68-4.18,0.63-7.16
					l-0.27-16.69c0.01-2.92-0.26-5.2-0.81-6.85c-0.55-1.64-1.41-2.87-2.58-3.68c-1.17-0.81-2.69-1.31-4.57-1.5
					c-1.88-0.19-4.14-0.26-6.78-0.22C791.93,935.06,789.4,935.29,787.54,935.71z"/>
				<path class="st0" d="M853.17,961.19l4.75,19.93l-11.57,2.76l-14.36-60.28l30.79-7.33c3.29-0.67,6.18-0.99,8.65-0.96
					c2.47,0.04,4.6,0.58,6.38,1.62c1.78,1.05,3.27,2.63,4.49,4.75c1.21,2.12,2.23,4.89,3.04,8.32c0.54,2.25,0.95,4.35,1.24,6.29
					c0.29,1.94,0.26,3.72-0.09,5.33c-0.35,1.61-1.12,3.08-2.3,4.41c-1.18,1.33-3.02,2.49-5.5,3.48l0.08,0.32
					c2.07-0.32,3.85-0.31,5.32,0.05c1.47,0.36,2.73,1.01,3.78,1.94c1.04,0.94,1.91,2.18,2.58,3.72c0.68,1.54,1.27,3.38,1.78,5.52
					l2.68,11.25l-11.57,2.76l-2.68-11.25c-0.61-2.57-1.68-4.51-3.21-5.82c-1.53-1.31-3.69-1.65-6.49-1.04L853.17,961.19z
					 M866.09,947.67c2.14-0.51,3.87-1.06,5.17-1.66c1.3-0.59,2.27-1.36,2.89-2.3c0.62-0.94,0.92-2.14,0.88-3.61
					c-0.04-1.46-0.32-3.29-0.84-5.49c-0.51-2.14-1.04-3.84-1.6-5.1c-0.55-1.25-1.28-2.16-2.17-2.71c-0.9-0.55-2-0.8-3.32-0.74
					c-1.32,0.06-3.02,0.34-5.11,0.83l-16.08,3.83l4.9,20.58L866.09,947.67z"/>
				<path class="st0" d="M913.34,925.66l26.18-12.48l4.2,8.8l-26.18,12.48l7.08,14.84l27.82-13.27l4.37,9.17l-38.56,18.39
					l-26.67-55.94l38.34-18.28l4.37,9.17l-27.6,13.16L913.34,925.66z"/>
				<path class="st0" d="M974.69,909.26l12.48,16.26l-9.44,7.24L940,883.59l25.11-19.27c2.73-1.96,5.23-3.43,7.5-4.41
					c2.27-0.98,4.43-1.35,6.48-1.12c2.05,0.23,4.06,1.07,6.04,2.5c1.97,1.44,4.03,3.56,6.18,6.35c1.41,1.84,2.64,3.58,3.7,5.23
					c1.06,1.65,1.76,3.29,2.1,4.9c0.34,1.62,0.24,3.27-0.3,4.97c-0.54,1.7-1.74,3.5-3.6,5.42l0.2,0.26
					c1.76-1.14,3.39-1.85,4.88-2.13c1.49-0.27,2.9-0.2,4.24,0.23c1.34,0.43,2.63,1.21,3.88,2.34c1.25,1.13,2.54,2.56,3.88,4.31
					l7.04,9.18l-9.44,7.24l-7.04-9.18c-1.61-2.1-3.38-3.43-5.31-4c-1.93-0.57-4.05,0-6.35,1.7L974.69,909.26z M980.96,891.63
					c1.75-1.34,3.1-2.55,4.04-3.62c0.95-1.07,1.51-2.17,1.7-3.28c0.19-1.11-0.04-2.33-0.67-3.65c-0.63-1.32-1.63-2.88-3.01-4.67
					c-1.34-1.75-2.52-3.08-3.54-4c-1.02-0.92-2.05-1.45-3.09-1.59c-1.04-0.14-2.15,0.09-3.33,0.68c-1.18,0.59-2.62,1.54-4.32,2.85
					l-13.11,10.06l12.88,16.78L980.96,891.63z"/>
				<path class="st0" d="M1026.74,864.42l2.21,1.86c1.35,1.14,2.55,1.86,3.62,2.18c1.06,0.32,2.13,0.23,3.2-0.27
					c1.07-0.5,2.24-1.39,3.49-2.68c1.26-1.28,2.77-2.97,4.55-5.08c1.74-2.06,3.03-3.81,3.86-5.23c0.84-1.42,1.25-2.69,1.26-3.8
					c0-1.11-0.35-2.15-1.06-3.1c-0.71-0.96-1.76-2.02-3.15-3.19c-1.69-1.42-3.13-2.25-4.32-2.5c-1.19-0.25-2.34-0.06-3.44,0.56
					c-1.1,0.62-2.23,1.58-3.39,2.87c-1.16,1.29-2.53,2.79-4.1,4.49c-2.33,2.43-4.53,4.68-6.6,6.75c-2.07,2.07-4.22,3.58-6.45,4.51
					c-2.23,0.93-4.66,1.1-7.29,0.51c-2.63-0.59-5.67-2.35-9.13-5.26c-3.24-2.73-5.37-5.34-6.36-7.84c-1-2.49-1.19-4.98-0.58-7.46
					c0.61-2.48,1.83-4.98,3.67-7.5c1.84-2.52,3.96-5.22,6.37-8.08c2.02-2.4,4.02-4.61,6-6.61c1.98-2.01,4.04-3.45,6.2-4.34
					c2.15-0.89,4.47-1.08,6.96-0.57c2.49,0.51,5.29,2.08,8.41,4.7l1.52,1.28l-7.66,9.1l-1.52-1.28c-1.26-1.06-2.37-1.76-3.32-2.09
					c-0.95-0.33-1.88-0.31-2.81,0.07c-0.93,0.37-1.87,1.07-2.84,2.09c-0.97,1.02-2.13,2.33-3.47,3.93
					c-1.92,2.28-3.38,4.16-4.38,5.65c-1.01,1.49-1.61,2.79-1.81,3.88c-0.2,1.09-0.02,2.09,0.55,3c0.57,0.91,1.48,1.9,2.75,2.96
					c1.48,1.24,2.7,2.09,3.68,2.56c0.98,0.46,1.99,0.5,3.03,0.12c1.04-0.38,2.22-1.19,3.55-2.42c1.32-1.23,3.02-2.95,5.1-5.16
					c3.3-3.49,6.12-6.28,8.46-8.38c2.34-2.1,4.56-3.47,6.65-4.12c2.09-0.65,4.23-0.54,6.42,0.33c2.19,0.87,4.8,2.58,7.83,5.13
					c3.33,2.8,5.62,5.4,6.89,7.8c1.26,2.39,1.73,4.79,1.41,7.18c-0.32,2.39-1.33,4.85-3.03,7.38c-1.7,2.53-3.83,5.31-6.38,8.35
					c-2.2,2.61-4.36,5.08-6.49,7.39c-2.13,2.31-4.37,4.04-6.74,5.18c-2.37,1.14-4.89,1.5-7.59,1.06c-2.7-0.43-5.75-2.09-9.16-4.96
					l-2.21-1.86L1026.74,864.42z"/>
			</g>
		</g>
	</g>
	<g>
		<path class="st0" d="M644.2,668.92c-2.43-2.71-5.28-4.29-8.46-5.26c-8.15-2.5-15.66-0.55-22.78,3.62
			c-3.61-4.28-7.07-8.37-10.65-12.63c3.76-3.19,7.42-6.28,11.06-9.37c2.25-1.91,2.28-2.21,0.36-4.48
			c-12.72-15.06-25.45-30.12-38.18-45.17c-1.86-2.2-2.24-2.22-4.5-0.31c-2.87,2.43-5.74,4.85-8.85,7.47
			c3.14-9.56,3.01-13.9-0.58-18.34c-9.26,7.82-18.52,15.64-27.89,23.56c5.27,4.9,11.1,5.3,17.6,3.44c-0.21,0.49-0.23,0.64-0.32,0.72
			c-2.67,2.28-5.34,4.56-8.02,6.84c-2.24,1.9-2.29,2.31-0.43,4.52c7.49,8.88,14.98,17.75,22.47,26.62
			c5.27,6.25,10.52,12.5,15.81,18.74c1.71,2.01,2.16,2.02,4.2,0.31c0.88-0.74,1.73-1.5,2.61-2.24c2.83-2.38,5.67-4.75,8.62-7.21
			c3.67,4.35,7.16,8.49,10.62,12.59c-8.61,11.58-10.02,24.07-3.47,30.99C616.98,691.89,630.53,680.45,644.2,668.92z"/>
		<path class="st0" d="M498.63,584.56c5.89-21.74,20-34.79,41.81-39.74c0.92-0.15,1.84-0.31,2.76-0.45
			c2.54-0.38,3.77-1.58,3.52-3.44c-0.25-1.84-1.88-2.8-4.28-2.47c-17.18,2.42-30.8,10.71-40.77,24.91c-4.33,6.17-7.26,13-8.85,20.38
			c-0.57,2.65,1.48,4.94,3.59,3.88C497.43,587.13,498.31,585.73,498.63,584.56z"/>
		<path class="st0" d="M640.36,596.67c8.97-7.58,17.79-15,26.58-22.46c1.5-1.27,1.58-2.91,0.44-4.41c-1.6-2.1-3.38-4.07-5.29-6.33
			c-9.77,8.25-19.33,16.32-29.03,24.51C635.53,590.91,637.9,593.74,640.36,596.67z"/>
		<path class="st0" d="M524.72,694.27c2.61-2.2,5.22-4.41,7.97-6.73c-2.5-2.96-4.87-5.77-7.32-8.68
			c-9.77,8.25-19.33,16.32-29.05,24.52c1.65,1.95,3.16,3.75,4.69,5.54c2.03,2.38,3.37,2.5,5.8,0.45
			C512.79,704.34,518.75,699.3,524.72,694.27z"/>
		<path class="st0" d="M518.55,670.78c-0.82-0.97-1.66-1.93-2.41-2.8c-0.28,0.02-0.38,0-0.42,0.04
			c-8.83,7.4-17.69,14.76-26.41,22.29c-0.75,0.65-1.18,2.8-0.68,3.58c1.57,2.49,3.65,4.66,5.58,7.02
			c9.82-8.3,19.38-16.36,29.03-24.52C521.57,674.39,520.06,672.58,518.55,670.78z"/>
		<path class="st0" d="M625.1,575.53c-0.47,0.4-0.88,0.86-1.4,1.38c2.44,2.89,4.78,5.66,7.24,8.56c9.7-8.19,19.26-16.25,28.87-24.37
			c-0.18-0.41-0.21-0.57-0.3-0.67c-1.38-1.65-2.76-3.29-4.15-4.93c-2.07-2.44-3.52-2.55-5.98-0.48
			C641.29,561.86,633.19,568.69,625.1,575.53z"/>
		<path class="st0" d="M621.27,578.78c-3.32,2.8-6.49,5.46-9.64,8.13c-5.52,4.67-11.03,9.35-16.57,14
			c-1.36,1.14-2.19,2.61-1.15,4.11c1.68,2.43,3.73,4.62,5.65,6.94c9.77-8.25,19.29-16.28,29.05-24.52
			C626.1,584.48,623.76,581.72,621.27,578.78z"/>
		<path class="st0" d="M534.88,685.4c0.32-0.14,0.53-0.19,0.68-0.32c8.66-7.3,17.31-14.6,25.96-21.91c1.51-1.28,1.67-2.91,0.55-4.41
			c-1.62-2.17-3.47-4.17-5.34-6.38c-9.73,8.21-19.34,16.32-29.03,24.51C530.2,679.85,532.54,682.62,534.88,685.4z"/>
		<path class="st0" d="M554.63,649.88c-1.72-2.04-3.22-3.85-4.76-5.64c-1.94-2.25-3.35-2.37-5.66-0.42
			c-4.44,3.73-8.86,7.49-13.29,11.23c-4.15,3.51-8.31,7.01-12.66,10.67c2.55,3.01,4.9,5.77,7.35,8.66
			C535.36,666.15,544.95,658.05,554.63,649.88z"/>
		<path class="st0" d="M601.66,614.45c1.57,1.86,2.99,3.55,4.43,5.24c2.33,2.74,3.64,2.84,6.45,0.47
			c8.04-6.79,16.08-13.59,24.12-20.39c0.42-0.35,0.79-0.77,1.29-1.26c-2.44-2.88-4.78-5.64-7.25-8.56
			C620.98,598.15,611.42,606.22,601.66,614.45z"/>
		<path class="st0" d="M511.98,588.45c0.36-1.09,0.55-2.23,0.91-3.31c4.89-14.64,14.98-23.46,30.01-26.72
			c0.64-0.1,1.27-0.21,1.91-0.31c2.44-0.39,3.67-1.68,3.37-3.55c-0.28-1.77-1.84-2.71-4.13-2.37c-15.55,2.36-27.02,10.5-34.12,24.53
			c-1.63,3.22-2.54,6.82-3.61,10.3c-0.51,1.66,0.31,2.96,1.99,3.52C509.9,591.06,511.41,590.18,511.98,588.45z"/>
		<path class="st0" d="M525.72,590.36c2.89-10.03,9.47-16.07,19.58-18.37c0.21-0.03,0.42-0.07,0.64-0.1
			c2.72-0.44,3.97-1.61,3.72-3.48c-0.26-1.99-1.92-2.85-4.68-2.4c-5.34,0.88-10.18,2.94-14.39,6.35c-5.52,4.49-9.2,10.2-10.64,17.19
			c-0.21,1.03,0.37,2.55,1.11,3.35c0.51,0.54,2.17,0.61,2.9,0.18C524.8,592.58,525.43,591.38,525.72,590.36z"/>
	</g>
	<g>
		<path class="st0" d="M872.04,762.86c-2.25-10.86-5.09-21.61-7.65-32.4c-0.59-2.5-3.03-3.73-5.41-2.61
			c-1.44,0.68-2.8,1.59-4.16,2.46c-11.07,7.04-23.15,10.98-36.24,12.15c-11.32,1.02-22.56,0.57-33.73-1.17
			c-8.82-1.36-17.56-3.37-25.46-7.82c-1.44-0.83-2.74-1.95-4.11-2.95c0.13-0.23,0.25-0.49,0.38-0.72c2.08,0.49,4.13,1.1,6.23,1.46
			c8.61,1.57,17.17,3.56,25.87,4.45c13.63,1.42,27.33,1.34,40.96-0.74c8.35-1.27,16.41-3.22,23.73-7.61c5-3.01,9.14-6.72,9.9-12.91
			c0.17-1.36-0.23-2.8-0.45-4.64c-4.62,2.74-8.59,5.19-12.64,7.46c-7.51,4.2-14.91,8.57-23.62,10.07
			c-19.27,3.33-38.4,1.91-57.35-1.99c-12.93-2.65-25.76-5.96-36.58-14.23c-0.59-0.45-1.76-0.15-2.65-0.19
			c0.32,0.76,0.51,1.61,1,2.25c3.99,5.13,9.54,8.29,14.93,11.66c0.61,0.38,1.21,0.81,1.82,1.21c-2.21,0.74-4.24,1.04-6.28,1.19
			c-1.53,0.11-2.21,0.57-1.74,2.25c1.23,4.41,2.5,8.82,3.52,13.27c2.37,10.28,4.09,20.69,4.47,31.25
			c0.32,9.37-0.61,18.64-2.27,27.88c-2.18,12.28-5.81,24.09-12.17,34.9c-2.54,4.33-5.66,8.31-8.88,12.98
			c1.38-0.49,2.37-0.72,3.27-1.17c10.56-5.22,19.61-12.38,26.86-21.63c2.12-2.74,3.6-6.13,3.35-9.86c-0.21-3.31-0.34-6.62-0.72-9.88
			c-1.63-14.04-1.53-28.12-1.08-42.19c0.13-4.13,2.08-6.53,6.21-7.08c7.08-0.98,14.25-2.27,21.35-2.16
			c18.76,0.3,37.51,1.34,56.25,1.91c4.56,0.13,9.16-0.13,13.68-0.76c3.16-0.45,5.87,0.25,7.57,3.1c0.42,0.74,1.17,1.27,1.63,1.99
			c0.59,0.91,1.48,1.93,1.51,2.9c0.38,15.52,0.64,31.06,0.89,46.6c0.11,5.3,0.25,10.62,0.06,15.92c-0.08,1.95-1.1,3.86-1.8,6.09
			c-1.42-1.06-2.33-1.74-3.63-2.74c-0.08,1.1-0.4,1.89-0.13,2.27c1.23,1.82,0.06,2.99-0.95,4.24c-0.74,0.93-1.68,1.8-2.18,2.86
			c-0.53,1.06-1,2.4-0.85,3.54c0.89,6.4,0.55,6.93-5.87,7.91c-0.32,0.06-0.64,0.11-0.98,0.11c-10.94,0-21.9,0.11-32.84-0.02
			c-18.93-0.23-37.7-3.73-56.7-2.44c-2.27,0.17-2.4-0.34-1.8-2.52c0.55-2.06,0.78-4.22,1.17-6.32c-0.32-0.11-0.61-0.21-0.93-0.32
			c-0.36,0.45-0.87,0.85-1.08,1.36c-1.08,2.84-2.54,5.64-3.05,8.61c-1.27,7.53-2.08,15.14-3.12,22.73
			c-0.19,1.42,0.23,2.35,1.57,2.84c4.52,1.61,9.01,3.39,13.55,4.96c2.06,0.72,4.11,1.4,6.21,2.01c10.37,3.05,21.08,4.41,31.87,5.15
			c17.32,1.19,34.43-0.11,51.4-3.29c2.57-0.66,5.13-1.38,7.65-2.16c0.4-0.42,0.74-0.93,0.87-1.4c1.02-3.54,2.01-7.08,2.93-10.64
			c0.61-2.27,1.17-4.54,1.72-6.81c1.84-7.68,3.75-15.33,5.15-23.07c2.18-12.06,3.03-24.28,3.31-36.51
			C876.07,790.08,874.82,776.37,872.04,762.86z M758.99,866.97c0.57-0.32,1.02-0.76,1.53-0.83c1.82-0.23,3.69-0.55,5.51-0.42
			c20.1,1.44,40.22,0.59,60.32,0.25c7.44-0.13,14.91,0.59,22.35,0.93C818.91,880.52,789.07,880.03,758.99,866.97z"/>
		<path class="st0" d="M705.1,652.56c0.79,0.86,1.86,1.47,2.3,1.81c1.32-1.05,2.05-1.8,2.93-2.28c0.58-0.32,1.37-0.25,2.07-0.36
			c-0.31-0.68-0.54-1.42-0.96-2.02c-1.5-2.16-3.41-4.12-4.56-6.45c-4.01-8.08-4.76-16.71-2.94-25.42c0.58-2.76,2.1-6.11,4.28-7.56
			c2.57-1.71,3.1-3.76,3.75-6.17c0.36-1.32,0.68-2.65,1.08-3.96c4.3-13.76,10.31-26.7,18.48-38.61
			c10.97-16.01,25.43-27.16,44.41-32.03c13.19-3.39,26.49-4.23,39.95-1.61c13.52,2.63,25.78,7.91,35.4,17.92
			c5.43,5.65,9.95,12.18,14.87,18.32c0.04,0.05-0.09,0.23-0.33,0.81c-4.03-3.43-8.14-6.55-11.81-10.12
			c-12.13-11.83-26.97-17.67-43.46-19.42c-10.96-1.16-21.91,0.07-32.5,3.22c-20.63,6.15-35.61,18.84-43.97,38.91
			c-0.48,1.14-0.79,2.35-1.17,3.53c0.19,0.12,0.38,0.24,0.57,0.36c1.24-1.39,2.48-2.78,3.71-4.18c4.83-5.51,9.58-11.12,15.99-14.92
			c1.25-0.74,2.73-1.09,4.1-1.63c0.17,0.3,0.34,0.61,0.52,0.91c-1.17,1.14-2.21,2.46-3.53,3.39c-6.52,4.59-11.42,10.49-15.33,17.42
			c-2.36,4.18-3.47,8.05-0.85,12.42c0.89,1.48,0.52,2.76-1.32,3.73c-2.27-2.69-4.47-5.39-5.58-8.84c-0.21-0.64-0.78-1.17-1.18-1.75
			c-0.69,0.58-1.6,1.04-2.02,1.78c-0.39,0.68-0.27,1.66-0.38,2.56c-1.11,0-2.01,0-3.74,0c1.39,1.62,2.34,2.74,3.29,3.85
			c1.93,2.24,4.28,4.23,5.71,6.76c6.29,11.11,7.37,23.16,5.67,35.58c-0.52,3.82-1.33,7.6-3.82,10.8c-2.49,3.2-2.51,3.31,0.17,6.53
			c9.05,10.86,19.71,19.87,31.81,27.16c12.61,7.58,26.33,12.09,40.88,13.76c12.88,1.48,25.6,0.68,37.41-5.51
			c2.66-1.39,5.15-3.09,8.12-4.89c-1.32,4.08-4.02,6.22-7.25,7.79c-9.36,4.56-19.4,6.26-29.68,6.72
			c-13.02,0.59-25.91-0.62-38.66-3.17c-13.11-2.62-25.73-6.56-36.77-14.47c-0.57-0.41-1.25-0.66-1.88-0.99
			c-0.17,0.31-0.35,0.63-0.52,0.94c8.2,11.66,21.82,14.15,34.59,19.32c-4.61,1.53-8.68,0.93-12.74,0.49
			c-0.09,0.22-0.18,0.44-0.28,0.66c2.45,1.46,4.9,2.93,7.35,4.39c-0.07,0.18-0.14,0.35-0.21,0.53c-9.17-3.38-18.35-6.76-27.52-10.14
			c-0.11,0.19-0.22,0.38-0.32,0.57c0.84,0.69,1.65,1.42,2.53,2.06c13.3,9.61,28.24,15.28,44.26,18.26
			c10.61,1.97,21.29,1.91,32.01,0.84c11-1.1,21.27-4.25,30.61-10.24c4.31-2.76,8.27-5.9,10.56-10.67c0.88-1.84,0.88-3.51-1.51-4.86
			c-4.76,7.89-11.88,12.78-20.04,16.46c-8.11,3.65-23.07,6.11-25.25,4c0.89-0.81,1.79-1.63,2.69-2.45c-0.13-0.21-0.27-0.42-0.4-0.63
			c-2.42-0.37-4.84-0.74-7.26-1.11c1.48-0.76,2.89-0.97,4.32-1.11c7.89-0.76,15.58-2.4,23-5.21c8-3.03,15.45-6.94,20.97-13.71
			c2.56-3.14,4.8-6.52,4.89-10.79c0.05-2.28-0.8-2.7-2.83-1.64c-2.9,1.51-5.84,2.97-8.8,4.37c-8,3.79-16.39,6.08-25.24,6.86
			c-13.5,1.2-26.25-1.62-38.62-6.73c-16.04-6.62-30.12-16.25-43-27.78c-1.47-1.32-1.17-2.68-0.64-4.16
			c4.83-13.45,5.32-27.14,1.34-40.79c-1.14-3.91-0.92-6.96,1.12-10.18c0.21-0.34,0.38-0.71,0.55-1.07
			c6.64-13.61,16.68-23.65,30.65-29.82c9.43-4.16,19.22-6.76,29.38-8.28c16.56-2.49,32.7-1.29,48.48,4.61
			c11.72,4.39,20.48,11.94,25.06,23.59c5.87,14.92,6.14,30.48,3.92,46.16c-1.63,11.48-5.25,22.37-10.34,32.76
			c-0.97,1.97-0.45,3.16,1.84,4.37c1.61-2.29,3.47-4.49,4.85-6.96c4.65-8.33,6.94-17.46,8.51-26.77
			c2.01-11.89,2.66-23.82,0.81-35.82c-2.47-15.93-8.53-30.42-17.1-43.99c-4.98-7.88-10.39-15.4-17.74-21.2
			c-19.96-15.74-42.51-21.87-67.7-17.63c-13.25,2.23-25.72,6.53-36.75,14.42c-16.14,11.55-26.91,27.25-34.79,45.16
			c-4.05,9.2-7.68,18.6-12.09,27.62c-4.21,8.62-5.98,17.44-4.6,26.9C697.92,640.83,700.22,647.27,705.1,652.56z"/>
		<path class="st0" d="M711.83,790.23c-0.02,0.64-0.3,1.25-0.45,1.87c-0.28,0.02-0.55,0.02-0.83,0.02
			c-2.71-9.86-4.73-20.04-12.79-27.46c2.44,8.44,4.69,16.84,5.26,25.68c0.57,8.74-0.15,17.37-0.78,26.06
			c-1.31-4.33-2.61-8.63-3.92-12.96c-0.19,0.02-0.38,0.04-0.59,0.06c0,1.06,0.04,2.12,0,3.18c-0.4,13.12-0.81,26.25-3.37,39.16
			c-0.61,3.03-1.65,6.06-2.99,8.88c-0.64,1.36-1.46,2.5-2.44,3.37c-1.82,1.65-4.2,2.46-7.08,2.35c-5.53-0.19-10.79-1.51-15.92-3.22
			c-9.54-5.81-18.66-12.28-27.27-19.32c-0.23-1.51,0.74-1.82,2.57-1.19c3.63,1.27,7.29,2.44,10.94,3.6
			c0.42,0.15,0.91,0.02,1.87,0.02c-2.69-2.06-5.07-3.75-7.29-5.64c-2.08-1.76-4.18-3.58-5.89-5.68c-0.74-0.89-1.21-2.46-1.1-3.69
			c0-0.15,0.02-0.28,0.04-0.4c1.04-5.94,2.37-11.81,3.69-17.7c0.17-0.76,0.76-1.78,1.4-2.01c0.55-0.19,1.61,0.38,2.16,0.93
			c4.33,4.33,9.16,7.99,15.03,9.77c4.9,1.48,9.94,1.4,15.05-0.91c-0.21-0.08-0.42-0.21-0.66-0.23c-11.15-1.1-18.7-7.87-25.1-16.24
			c-1.44-1.89-2.33-4.2-3.33-6.38c-0.25-0.53-0.11-1.46,0.25-1.93c0.19-0.28,1.17-0.17,1.74,0c6.21,1.91,12.38,3.96,18.64,5.7
			c2.44,0.68,5.07,0.61,7.61,0.89c0.06-0.21,0.13-0.42,0.19-0.64c-2.33-1.08-4.64-2.21-7-3.22c-5.98-2.61-11.09-6.51-15.94-10.77
			c-3.16-2.76-3.63-6.06-2.48-10.05c3.88-13.49,10.67-25.3,19.76-35.88c0.49-0.57,0.93-1.21,1.84-2.37
			c-5.85,0.57-10.05,3.2-14.65,5.7c0.23-0.55,0.36-1.17,0.72-1.61c6.62-7.89,15.16-12.93,24.79-16.05c4.88-1.59,9.2,0.15,12.64,3.94
			c4.9,5.34,7.59,11.89,9.86,18.64C711,759.36,712.43,774.67,711.83,790.23z"/>
		<path class="st0" d="M855.93,784.4c-0.47-6.25-0.98-12.47-1.51-19.06c-1.46,0-3.2,0-4.94-0.02c-12.72-0.06-25.49,0.45-38.17-0.36
			c-11.87-0.74-23.64-0.51-35.43,0.45c-1.76,0.15-2.69,0.91-1.89,2.65c1.97,4.24,2.1,8.74,2.1,13.25c0,13.59-0.04,27.2-0.06,40.79
			c0,3.41,0.02,3.8,3.37,3.88c9.24,0.23,18.51,0.08,27.75,0.28c7.7,0.15,15.41,0.57,23.13,0.89c2.86,0.13,5.72,0.51,8.57,0.4
			c4.26-0.15,8.52-0.68,12.76-0.95c4.07-0.25,4.18,0.76,3.99-4.35c-0.45-11.2-1.04-22.37,0.4-33.52
			C856.2,787.31,856.03,785.82,855.93,784.4z M809.26,794.22c-0.06,6.95-1.53,9.05-8.38,9.92c-4.16,0.51-8.44,0.02-12.66-0.11
			c-1.44-0.04-2.18-0.85-2.54-2.37c-1.65-7.06-1.7-14.16-0.61-21.31c0.28-1.84,1.08-2.69,3.2-2.59c2.71,0.15,5.45-0.34,8.18-0.38
			c0.74,0,1.51,0.66,2.27,0.95c0.89,0.36,1.76,0.74,2.67,0.98c5.07,1.27,6.53,2.82,7.29,7.95c0.25,1.74,0.34,3.52,0.57,5.7V794.22z
			 M844.86,790.57h-0.3c0,3.46,0.13,6.91-0.08,10.35c-0.04,0.81-1.1,2.14-1.8,2.23c-5.58,0.68-11.17,1.46-16.77,1.51
			c-3.63,0.02-5.72-2.74-5.87-6.36c-0.21-4.92-0.34-9.82-0.38-14.74c-0.02-3.84,1.36-5.58,5.26-5.75c4.33-0.19,8.67,0.21,13,0.4
			c1.61,0.08,3.22,0.47,4.81,0.42c1.76-0.06,2.21,0.7,2.16,2.29C844.8,784.13,844.86,787.35,844.86,790.57z"/>
		<path class="st0" d="M939.75,839.66c0.27-0.58,0.19-1.33,0.27-2c-0.6,0-1.21-0.03-1.81,0.02c-3.99,0.35-7.97,0.8-11.96,1.01
			c-0.91,0.05-1.87-0.76-3.32-1.4c1.23-0.74,1.69-1.07,2.19-1.3c3.56-1.66,7.11-3.35,10.7-4.93c1.87-0.82,2.66-1.69,1.92-4.01
			c-0.87-2.71-1.15-5.66-1.39-8.52c-0.38-4.4-0.51-8.82-0.78-13.23c-0.03-0.44-0.26-0.86-0.5-1.64c-4.03,2.85-7.63,6.02-12.68,6.28
			c-6.09,0.31-12.01-0.81-13.75-3.09c1.64,0,3.07-0.06,4.49,0.01c5.62,0.29,10.45-1.85,14.69-5.19c2.02-1.59,4.51-3.82,4.83-6.04
			c0.47-3.3-0.79-6.85-1.29-10.14c-3.64,1.93-6.71,4.12-10.13,5.23c-3.31,1.07-7.02,1.7-10.44-0.59c0.96-0.75,1.98-1.06,2.98-1.4
			c1.74-0.59,3.72-0.85,5.14-1.88c2.99-2.15,5.72-4.67,8.47-7.14c0.49-0.44,0.81-1.42,0.73-2.11c-1.04-9.92-3.09-19.56-8.42-28.21
			c-0.38-0.61-1.04-1.33-0.95-1.9c0.43-2.69-1.48-3.91-3.11-5.26c-2.35-1.95-4.87-3.69-7.21-5.65c-1.3-1.09-2.38-2.44-3.56-3.67
			c0.14-0.3,0.27-0.61,0.41-0.91c1.16,0.1,2.32,0.24,3.49,0.29c0.88,0.04,1.77-0.04,2.65-0.07c-0.34-0.75-0.46-1.82-1.04-2.2
			c-5.34-3.56-10.71-7.08-16.18-10.43c-1.4-0.86-2.14,0.01-1.66,1.6c0.62,2.08,1.47,4.11,1.87,6.22c1.83,9.79,3.88,19.55,5.2,29.42
			c1.83,13.71,1.06,27.44-0.52,41.16c-1.39,12.05-2.24,24.17-3.3,36.26c-0.07,0.8,0.17,1.63,0.32,2.96c2.22-1.28,4-2.31,6.03-3.48
			c0.15,0.44,0.28,0.8,0.39,1.17c1.12,3.94,2.22,7.89,3.37,11.82c0.61,2.11,1.98,2.87,4.22,2.58c2.54-0.33,5.15-0.19,7.7-0.5
			c3.82-0.46,7.7-0.83,11.4-1.81C933.51,845.84,937.69,844.14,939.75,839.66z"/>
		<path class="st0" d="M716.8,835.68c2.94-3.85,6.32-7.44,8.72-11.59c5.43-9.41,7.76-19.9,9.03-30.57
			c2.36-19.73,0.21-39.04-6.45-57.78c-2.48-6.99-5.61-13.71-10.02-19.73c-0.82-1.12-1.92-2.04-2.89-3.06
			c-0.25,0.14-0.5,0.27-0.75,0.41c-0.15,2.56-0.3,5.12-0.46,8.01c-1.52-0.68-2.58-1.22-3.69-1.64c-1.13-0.43-2.3-0.73-3.46-1.09
			c-0.22,0.18-0.44,0.35-0.67,0.53c21.63,37.18,23.14,75.99,9.95,115.99C716.34,835.33,716.57,835.51,716.8,835.68z"/>
		<path class="st0" d="M838.37,678.26c0.61,0.25,1.26,0.79,1.82,0.72c2.46-0.35,4.97-0.63,7.32-1.37
			c8.73-2.77,14.21-9.06,17.98-17.11c4.93-10.54,7.77-21.66,8.71-33.21c0.92-11.32,0.37-22.51-4.82-33.03
			c-7.3-14.82-19.46-22.73-35.56-24.23c-7.22-0.67-14.62,0.15-21.89,0.81c-4.16,0.37-8.49,0.92-12.06,3.53
			c0,0.26-0.01,0.51-0.01,0.77c0.89,0.13,1.78,0.4,2.66,0.38c7.41-0.16,14.82-0.26,22.21-0.62c5.35-0.26,10.33,0.81,15.3,2.68
			c9.62,3.62,17.55,9.1,21.93,18.79c2.91,6.44,4.55,13.16,4.99,20.25c0.99,15.72-1.66,30.67-9.46,44.45
			c-3.39,5.99-7.51,11.5-14.37,14.05c-1.13,0.42-2.39,0.57-3.41,1.16C839.09,676.61,838.81,677.57,838.37,678.26z"/>
		<path class="st0" d="M881.62,717.55c-0.72-2.97-2.61-4.86-5.56-5.79c-4.48-1.41-5.04-0.96-4.59,3.79c1.33,14,5.7,27.35,8.68,41
			c2.6,11.92,4.72,23.95,7.06,35.92c0.12,0.63,0.33,1.24,0.49,1.85c0.31-0.03,0.61-0.05,0.92-0.08c0.37-3.56,0.96-7.11,1.08-10.68
			c0.5-14.43-0.28-28.82-2.71-43.05C885.67,732.79,883.47,725.2,881.62,717.55z"/>
		<path class="st0" d="M857.86,622.08c1.21-2.27,1.71-4.92,2.62-7.66c-1.14-4.21-1.84-8.54-3.48-12.48
			c-2.45-5.9-7.77-9.16-12.88-8.81c-1.75,0.12-2.84,0.82-3.27,2.58c-2.48,10.08,0.08,19.15,5.9,27.34
			C849.59,627.03,855.56,626.41,857.86,622.08z"/>
		<path class="st0" d="M727.48,608.57c-1.13-2.26-2.67-4.41-4.38-6.28c-1.8-1.96-3.34-0.24-4.69,1.02c-1.22,1.14-2.46,2.03-0.8,4.11
			c6,7.54,9.81,15.86,8.04,25.87c-0.01,0.08-0.02,0.16-0.02,0.24c0.2,3.83-2.1,6.01-5.05,7.85c-0.77,0.48-1.32,1.33-1.97,2.01
			c0.89,0.83,1.64,2.1,2.68,2.41c3.07,0.93,5.83-0.39,7.19-3.3c2.36-5.05,3.12-10.45,3.08-16.51
			C731.74,620.19,730.3,614.19,727.48,608.57z"/>
		<path class="st0" d="M718.12,686.42c0.5-0.58,1.05-1.12,1.47-1.74c0.21-0.31,0.23-0.77,0.25-1.16c0.35-8.26,0.7-16.51,1.02-24.77
			c0.02-0.44-0.2-0.89-0.46-1.94c-2.18,1.64-4.14,3.03-5.97,4.57c-0.39,0.33-0.45,1.19-0.45,1.81c-0.01,4.01-0.29,8.07,0.17,12.03
			c0.39,3.29,1.63,6.49,2.61,9.7C716.93,685.49,717.65,685.92,718.12,686.42z"/>
		<path class="st0" d="M692.77,710.23c4.56-1.01,8.15,2.62,12.39,3.3c0.13-0.23,0.26-0.47,0.38-0.7c-1.76-1.35-3.51-2.7-5.28-4.07
			c2.68-2.43,11.42-3.76,13.45-2.09c1.22-1.7,0.73-2.53-1.26-2.86c-11.47-1.89-21.74,1.61-31.55,7.08
			c-0.69,0.39-0.95,1.55-1.42,2.35c0.2,0.12,0.41,0.23,0.61,0.35C684.32,712.46,688.51,711.18,692.77,710.23z"/>
		<path class="st0" d="M880.78,841.27c-0.19,7.87-0.32,15.73-0.61,23.58c-0.06,2.04-0.13,4.05-0.23,6.09
			c-0.15,3.01-1.08,4.94-3.14,6.36c-1.36,0.51-2.71,1-4.07,1.48c0.95-4.07,1.99-8.12,2.97-12.15c2.29-9.37,4.2-18.74,3.94-28.45
			c0.32,0.02,0.64,0.06,0.98,0.08C880.67,839.28,880.82,840.27,880.78,841.27z"/>
		<path class="st0" d="M719.72,863.98c-0.15,2.18-0.32,4.39-0.49,6.59c-0.28,3.46-0.57,6.95-0.87,10.6
			c-0.85-0.28-1.72-0.55-2.57-0.85c-0.98-1.44-1.44-3.01-1.74-4.69c-0.4-2.31-0.21-4.56,0.21-6.78c0.45-2.31,1.17-4.6,1.78-6.89
			c0.36-1.34,0.66-2.67,1.19-3.92c0.21-0.55,0.91-0.91,1.4-1.36c0.3,0.51,0.81,1,0.85,1.53
			C719.66,860.12,719.85,862.07,719.72,863.98z"/>
		<path class="st0" d="M839.62,789.68c-0.49-2.5-2.29-3.75-4.77-4.13c-0.78-0.11-1.57-0.3-2.35-0.45c-0.11-0.19-0.21-0.36-0.32-0.55
			c-1.89,0.98-4.39,1.51-5.51,3.03c-1.63,2.21-0.36,4.81,1.27,6.83c0.78,0.95,1.91,1.7,3.01,2.33c2.18,1.27,4.41,0.98,6.3-0.59
			C839.22,794.52,840.11,792.23,839.62,789.68z M833.81,794.9c-2.54,0.04-5.13-2.54-5.13-5.11c0-1.78,1.78-3.07,4.18-3.05
			c3.07,0.04,4.73,1.31,4.71,3.63C837.57,792.71,835.76,794.86,833.81,794.9z"/>
		<path class="st0" d="M799.55,784.59c-3.71-0.85-6.52,0.98-7.16,5.13c-0.82,5.33-0.22,6.26,4.37,6.78c0.88,0.1,1.75,0.21,2.62,0.32
			c0.09,0.15,0.19,0.29,0.28,0.44c1.32-0.71,3.02-1.11,3.88-2.18C805.87,792.18,803.15,785.41,799.55,784.59z"/>
	</g>
	<g>
		<path class="st0" d="M1005.13,533.23c-2.52,2.65-4.96,5.41-7.29,8.23c-9.41-17.92-21.22-34.67-35.28-49.83l-11.98-12
			c-43.19-40.31-99.51-62.49-158.6-62.49c-98.53,0-182.98,61.62-216.78,148.36c-0.85-0.61-1.74-1.17-2.67-1.65
			c-0.32-1.61-0.76-3.14-1.34-4.6c0.45-2.76,0.47-5.58,0.02-8.4c-0.08-0.55-0.19-1.1-0.32-1.65
			c38.27-83.92,122.98-142.38,221.08-142.38c61.74,0,120.6,23.2,165.72,65.33l0.13,0.13L970,484.49
			C983.82,499.39,995.57,515.78,1005.13,533.23z"/>
		<path class="st0" d="M1034.73,657.5c-3.2,100.74-68.02,186.18-157.94,219.79c-1.36,0.51-2.71,1-4.07,1.48
			c-3.6,1.27-7.23,2.46-10.92,3.56c-2.52,0.78-5.09,1.51-7.65,2.16c-19.85,5.28-40.69,8.08-62.17,8.08
			c-25.66,0-50.38-4.01-73.62-11.41c-0.85-0.28-1.72-0.55-2.57-0.85c-17.6-5.81-34.31-13.59-49.87-23.09
			c-9.54-5.81-18.66-12.28-27.27-19.32c-42.26-34.48-72.73-82.86-84.37-138.12c3.01-2.54,6.02-5.07,9.03-7.61
			c9.77,52.75,37.42,99.34,76.42,133.16c14.86,12.89,31.38,23.96,49.19,32.76c8.18,4.09,16.64,7.7,25.34,10.75
			c1.63,0.61,3.29,1.19,4.96,1.72c14.57,4.81,29.77,8.23,45.44,10.05c8.95,1.06,18.06,1.61,27.31,1.61
			c25.72,0,50.48-4.2,73.62-11.94c3.41-1.14,6.76-2.35,10.09-3.67c1.51-0.55,2.99-1.14,4.47-1.78c10.86-4.43,21.29-9.69,31.23-15.69
			c5.51-3.29,10.83-6.81,16.01-10.54l0.02-0.02c54.39-39.1,91.24-101.01,96.45-171.64C1027.9,663.52,1031.7,660.24,1034.73,657.5z"
			/>
		<path class="st0" d="M1008.42,565.99c-36.26,4.23-58.77,29.57-79.21,56.46c19.9-13.32,37.02-16.51,49.73-3.5l-9.23,13.51
			c0,0,41.81-28.25,60.92-58.97l-39.49,30.49l-8.45-0.28c33.97-50.99,72.11-82.94,114.96-93.43c0,0-3.84,13.24-16.79,29.79
			c0,0-3.41-14.88-18.47-11.67c-15.05,3.2-32.43,22.73-21.22,37.43c0,0,4.1,5.46,14.14,4.26c-20.47,20.67-44.45,38.55-70.88,54.48
			c0,0,4.42,4.69,7.66,10.5c3.04,5.44,3.21,12.01,0.65,17.69c-2.53,5.61-6.52,13.66-10.43,18.39c0,0,30.47-24.74,39.75-33.69
			c11.78-11.36,19.02-17.57,20.93-41.57c34.13-24.3,55.06-56.51,64.67-95.52C1065.9,511.84,1031.96,532.67,1008.42,565.99z
			 M1068.81,559.49c-8.24,7.34-19.14,8.54-24.35,2.69c-5.21-5.85-2.76-16.54,5.48-23.88s19.14-8.54,24.35-2.69
			C1079.5,541.47,1077.04,552.16,1068.81,559.49z"/>
		<path class="st0" d="M987.23,638.63c-7.02,6.38-29.45,25.94-51.83,36.89l1.91-6.21l-23.26,17.56l24.73-34.17l-5.81,1.21
			l24.1-30.15c3.42-4.28,9.1-6.07,14.36-4.53l2.77,0.81l-15.95,24.8l22.21-14.9c0.58-0.39,1.31-0.47,1.96-0.25
			c2.18,0.74,3.95,1.86,5.23,3.41C989.01,634.74,988.82,637.19,987.23,638.63z"/>
	</g>
</g>
</svg>
